HIERARCHY
ROOT Hips
{
	OFFSET 0.000000 0.000000 0.000000
	CHANNELS 6 Xposition Yposition Zposition Xrotation Yrotation Zrotation
	JOINT LeftUpLeg_virtual
	{
		OFFSET 0.000000 0.000000 0.000000
		CHANNELS 3 Xrotation Yrotation Zrotation
		JOINT LeftUpLeg
		{
			OFFSET 15.427100 -6.655098 0.678600
			CHANNELS 3 Xrotation Yrotation Zrotation
			JOINT LeftLeg
			{
				OFFSET 4.081073 -39.591068 13.024000
				CHANNELS 3 Xrotation Yrotation Zrotation
				JOINT LeftFoot
				{
					OFFSET -4.081074 -37.707932 -15.979700
					CHANNELS 3 Xrotation Yrotation Zrotation
					JOINT LeftToeBase
					{
						OFFSET 5.346399 -15.068900 20.645000
						CHANNELS 3 Xrotation Yrotation Zrotation
						JOINT LeftToe_End
						{
							OFFSET 2.754700 0.931300 11.300900
							CHANNELS 3 Xrotation Yrotation Zrotation
							End Site
							{
								OFFSET 0 0 0
							}
						}
					}
				}
			}
		}
	}
	JOINT RightUpLeg_virtual
	{
		OFFSET 0.000000 0.000000 0.000000
		CHANNELS 3 Xrotation Yrotation Zrotation
		JOINT RightUpLeg
		{
			OFFSET -15.569500 -6.655098 0.678600
			CHANNELS 3 Xrotation Yrotation Zrotation
			JOINT RightLeg
			{
				OFFSET -4.081825 -39.591045 13.023800
				CHANNELS 3 Xrotation Yrotation Zrotation
				JOINT RightFoot
				{
					OFFSET 4.081824 -37.707954 -15.979600
					CHANNELS 3 Xrotation Yrotation Zrotation
					JOINT RightToeBase
					{
						OFFSET -5.346400 -15.068900 20.645000
						CHANNELS 3 Xrotation Yrotation Zrotation
						JOINT RightToe_End
						{
							OFFSET -2.754700 0.931300 11.300900
							CHANNELS 3 Xrotation Yrotation Zrotation
							End Site
							{
								OFFSET 0 0 0
							}
						}
					}
				}
			}
		}
	}
	JOINT Spine_virtual
	{
		OFFSET 0.000000 0.000000 0.000000
		CHANNELS 3 Xrotation Yrotation Zrotation
		JOINT Spine
		{
			OFFSET -0.279200 12.230698 -2.892100
			CHANNELS 3 Xrotation Yrotation Zrotation
			JOINT Spine1
			{
				OFFSET -0.232667 10.192268 -1.242267
				CHANNELS 3 Xrotation Yrotation Zrotation
				JOINT Spine1_split
				{
					OFFSET -0.232667 10.192268 -1.242267
					CHANNELS 3 Xrotation Yrotation Zrotation
					JOINT Spine2
					{
						OFFSET -0.232667 10.192268 -1.242267
						CHANNELS 3 Xrotation Yrotation Zrotation
						JOINT Neck_virtual
						{
							OFFSET 0.000000 0.000000 0.000000
							CHANNELS 3 Xrotation Yrotation Zrotation
							JOINT Neck
							{
								OFFSET -0.418800 17.814194 8.416900
								CHANNELS 3 Xrotation Yrotation Zrotation
								JOINT Head
								{
									OFFSET 0.000000 7.031097 3.806800
									CHANNELS 3 Xrotation Yrotation Zrotation
									JOINT HeadTop_End
									{
										OFFSET 0.000000 24.646606 12.978600
										CHANNELS 3 Xrotation Yrotation Zrotation
										End Site
										{
											OFFSET 0 0 0
										}
									}
								}
							}
						}
						JOINT LeftShoulder_virtual
						{
							OFFSET 0.000000 0.000000 0.000000
							CHANNELS 3 Xrotation Yrotation Zrotation
							JOINT LeftShoulder
							{
								OFFSET 8.476499 7.247704 -3.868750
								CHANNELS 3 Xrotation Yrotation Zrotation
								JOINT LeftShoulder_split
								{
									OFFSET 8.476499 7.247704 -3.868750
									CHANNELS 3 Xrotation Yrotation Zrotation
									JOINT LeftArm
									{
										OFFSET 9.308998 -2.777710 0.208600
										CHANNELS 3 Xrotation Yrotation Zrotation
										JOINT LeftForeArm
										{
											OFFSET 29.972298 0.000000 0.000000
											CHANNELS 3 Xrotation Yrotation Zrotation
											JOINT LeftHand
											{
												OFFSET 26.026505 0.000000 0.000000
												CHANNELS 3 Xrotation Yrotation Zrotation
												End Site
												{
													OFFSET 0 0 0
												}
											}
										}
									}
								}
							}
						}
						JOINT RightShoulder_virtual
						{
							OFFSET 0.000000 0.000000 0.000000
							CHANNELS 3 Xrotation Yrotation Zrotation
							JOINT RightShoulder
							{
								OFFSET -7.570500 7.247704 -3.868750
								CHANNELS 3 Xrotation Yrotation Zrotation
								JOINT RightShoulder_split
								{
									OFFSET -7.570500 7.247704 -3.868750
									CHANNELS 3 Xrotation Yrotation Zrotation
									JOINT RightArm
									{
										OFFSET -9.308998 -2.777710 0.208500
										CHANNELS 3 Xrotation Yrotation Zrotation
										JOINT RightForeArm
										{
											OFFSET -29.972300 0.000000 0.000000
											CHANNELS 3 Xrotation Yrotation Zrotation
											JOINT RightHand
											{
												OFFSET -26.026505 0.000000 0.000000
												CHANNELS 3 Xrotation Yrotation Zrotation
												End Site
												{
													OFFSET 0 0 0
												}
											}
										}
									}
								}
							}
						}
					}
				}
			}
		}
	}
}
MOTION
Frames: 5
Frame Time: 0.03333333
64.223305 93.717224 158.971069 0.000000 0.000000 0.000000 -8.315687 37.457604 9.810651 -20.164738 7.785243 -15.573140 25.505132 -8.071565 -0.664520 27.909777 1.821790 13.675099 -28.110149 -0.028532 5.325015 0.000000 0.000000 0.000000 -7.773019 40.204652 9.599262 -13.805112 15.259298 2.028855 46.828375 -5.223911 -2.983978 17.129030 -6.891756 -5.226043 -47.518391 -0.036525 5.398540 0.000000 0.000000 0.000000 -7.749194 37.937504 9.124521 3.697138 -1.585156 -4.903120 -1.694420 -1.370164 0.915522 0.709016 0.760017 0.018038 0.000000 0.000000 0.000000 -1.659846 -1.209947 1.133337 -8.932486 3.543275 2.315022 6.294080 7.105601 -3.183520 0.000000 0.000000 0.000000 -2.064225 -0.892762 1.250549 1.054153 8.834336 -3.306704 0.854411 2.940600 -1.128233 6.408628 -8.763025 -68.073791 12.146942 -24.862175 4.424844 0.000000 0.000000 0.000000 -1.738649 -1.251141 1.130263 0.679607 1.964838 3.412669 1.447716 1.458887 -3.075526 -0.448256 7.768913 78.009257 11.513220 15.672923 -3.168157 0.000000 0.000000 0.000000 
66.924789 94.653824 161.865875 0.000000 0.000000 0.000000 -7.448751 39.187824 8.199951 -16.515054 5.838778 -14.860021 24.090659 -7.996795 -0.370206 22.156814 4.317584 14.469230 -24.699755 0.999947 2.833436 0.000000 0.000000 0.000000 -7.268783 41.417608 8.094527 -20.679769 15.154914 2.605158 43.500382 -4.814913 -2.875679 18.703785 -5.979357 -5.916233 -38.603089 0.159829 5.730013 0.000000 0.000000 0.000000 -7.229750 38.825695 7.821570 4.365147 -2.151631 -4.441109 -1.982611 -1.760328 1.062222 0.792566 0.860175 -0.106082 0.000000 0.000000 0.000000 -1.750204 -1.564006 1.330757 -8.904083 3.586508 2.736073 6.467598 7.377386 -3.742766 0.000000 0.000000 0.000000 -2.120490 -1.320729 1.440640 0.902206 7.690402 -3.056824 0.764972 3.387641 -0.978864 5.135580 -10.810231 -67.886036 12.270663 -25.087575 4.653304 0.000000 0.000000 0.000000 -1.975087 -1.638813 1.331336 0.369417 0.858943 4.151677 1.885193 1.698635 -3.153558 -0.260170 6.638907 77.236127 11.300288 15.631860 -3.272935 0.000000 0.000000 0.000000 
69.857910 95.374680 164.714020 0.000000 0.000000 0.000000 -6.558474 41.199175 6.737168 -12.230467 5.347207 -13.906776 21.964949 -8.700555 -0.475001 15.697378 4.936539 15.644864 -22.855555 1.630468 1.067671 0.000000 0.000000 0.000000 -6.457050 42.781682 6.617375 -26.204750 13.694879 2.174181 38.426443 -3.134075 -2.713399 23.322337 -3.302874 -3.833976 -34.341846 0.490082 4.696975 0.000000 0.000000 0.000000 -6.641280 40.070316 6.683142 4.877093 -2.575232 -4.304393 -2.229799 -2.091908 1.205786 1.014212 1.003379 -0.300670 0.000000 0.000000 0.000000 -1.870742 -1.895890 1.504531 -8.883005 3.424086 3.501571 6.396999 7.535779 -4.195250 0.000000 0.000000 0.000000 -2.245549 -1.707334 1.584309 0.759686 6.499018 -2.793711 0.689537 3.591572 -0.860794 3.778415 -12.764467 -67.804927 12.324152 -25.179287 4.898343 0.000000 0.000000 0.000000 -2.162636 -1.999154 1.501464 0.076044 -0.219152 5.031720 2.299953 2.011417 -3.157911 0.143634 5.575781 76.441599 11.172391 15.692617 -3.445353 0.000000 0.000000 0.000000 
72.861450 95.677635 167.427933 0.000000 0.000000 0.000000 -5.949430 43.740036 5.883712 -8.384683 6.442377 -12.493218 20.003718 -10.986642 -1.136007 12.001179 2.895538 16.263777 -23.947171 1.523180 1.145292 0.000000 0.000000 0.000000 -5.551167 44.919893 5.568447 -29.986747 11.419001 1.013594 31.989211 -0.949171 -2.262449 28.289129 0.267970 -1.104096 -32.727381 0.796890 2.871129 0.000000 0.000000 0.000000 -6.308626 41.974658 6.127792 5.237795 -2.934509 -4.652990 -2.372903 -2.380257 1.396002 1.000517 1.077274 -0.358752 0.000000 0.000000 0.000000 -2.025121 -2.180675 1.697470 -8.946492 3.058043 4.527551 6.103721 7.572801 -4.440891 0.000000 0.000000 0.000000 -2.417499 -2.025045 1.736189 0.618348 5.376456 -2.400270 0.654302 3.576649 -0.797478 2.381303 -14.400954 -67.861413 12.277817 -25.437781 5.138855 0.000000 0.000000 0.000000 -2.300590 -2.304748 1.684090 -0.173289 -1.241795 5.955196 2.749957 2.401695 -3.111118 0.793103 4.756817 75.579656 11.167767 15.771510 -3.675761 0.000000 0.000000 0.000000 
75.791206 95.554611 170.060181 0.000000 0.000000 0.000000 -5.539737 46.621833 5.677801 -5.476063 8.605691 -10.954909 18.790392 -14.409621 -2.245754 11.584273 -0.699252 17.427460 -25.833100 0.893449 2.064426 0.000000 0.000000 0.000000 -4.412442 47.916758 4.952873 -32.028191 8.502996 -0.519482 25.519129 0.662958 -1.564726 31.815977 3.264737 0.189622 -31.122529 1.117902 1.000830 0.000000 0.000000 0.000000 -6.302722 44.670609 6.272257 5.445314 -3.342535 -5.537315 -2.358224 -2.630411 1.672753 0.932772 1.187006 -0.357912 0.000000 0.000000 0.000000 -2.183687 -2.394904 1.942341 -9.216116 2.470462 5.663951 5.703905 7.459077 -4.431378 0.000000 0.000000 0.000000 -2.563286 -2.248020 1.957627 0.484661 4.377341 -1.800068 0.764708 3.419944 -0.821187 0.976980 -15.589306 -68.032721 12.138149 -26.060732 5.385050 0.000000 0.000000 0.000000 -2.359696 -2.537821 1.925374 -0.366328 -2.139618 6.895989 3.251871 2.844625 -2.982063 1.522946 4.169854 74.655252 11.263513 15.738260 -3.917475 0.000000 0.000000 0.000000 
